<svg width="24" height="24" viewBox="0 0 24 24" fill="none" xmlns="http://www.w3.org/2000/svg">
<g clip-path="url(#clip0_745_58)">
<path d="M23.4598 9.21728L23.4599 9.21781C23.5618 9.54528 23.4645 9.89736 23.2262 10.115L23.2258 10.1153L17.9898 14.9061L17.7776 15.1003L17.8387 15.3813L19.3826 22.4781C19.4558 22.8153 19.3279 23.1552 19.0736 23.3475L19.0736 23.3475C18.824 23.5363 18.4988 23.5497 18.239 23.3866L18.2378 23.3859L12.2648 19.6594L12.0001 19.4943L11.7355 19.6593L5.76027 23.3858L5.76004 23.386C5.63633 23.4632 5.50284 23.5 5.37097 23.5C5.2177 23.5 5.06223 23.4505 4.92498 23.3471C4.67172 23.156 4.54325 22.8168 4.61645 22.4782C4.61647 22.4781 4.6165 22.478 4.61652 22.4779L6.16039 15.3813L6.22153 15.1003L6.00938 14.9061L0.773357 10.1144L0.772422 10.1135C0.535365 9.89771 0.438163 9.54539 0.540164 9.21807C0.641388 8.89323 0.909008 8.6808 1.2073 8.65181C1.20748 8.65179 1.20765 8.65178 1.20782 8.65176L8.13511 7.9955L8.43609 7.96699L8.55066 7.68721L11.2896 0.998877C11.2896 0.998708 11.2897 0.998539 11.2898 0.99837C11.4189 0.68477 11.7025 0.5 12.0001 0.5C12.2978 0.5 12.5815 0.684959 12.7105 0.997493C12.7106 0.997699 12.7107 0.997905 12.7108 0.998111L15.4495 7.68718L15.5641 7.96698L15.8651 7.9955L22.7921 8.65184L22.7925 8.65187C23.091 8.67995 23.3593 8.89295 23.4598 9.21728Z" fill="#FFE68D" stroke="#FFC700"/>
</g>
<defs>
<clipPath id="clip0_745_58">
<rect width="24" height="24" fill="white"/>
</clipPath>
</defs>
</svg>
