<svg width="24" height="24" viewBox="0 0 24 24" fill="none" xmlns="http://www.w3.org/2000/svg">
<path fill-rule="evenodd" clip-rule="evenodd" d="M3.29289 3.29289C3.68342 2.90237 4.31658 2.90237 4.70711 3.29289L20.7064 19.2922C21.0969 19.6827 21.0969 20.3159 20.7064 20.7064C20.3159 21.0969 19.6827 21.0969 19.2922 20.7064L3.29289 4.70711C2.90237 4.31658 2.90237 3.68342 3.29289 3.29289Z" fill="#CCCCCC"/>
<path fill-rule="evenodd" clip-rule="evenodd" d="M20.7064 3.29289C21.0969 3.68342 21.0969 4.31658 20.7064 4.70711L4.70708 20.7064C4.31656 21.0969 3.68339 21.0969 3.29287 20.7064C2.90234 20.3159 2.90234 19.6827 3.29287 19.2922L19.2922 3.29289C19.6827 2.90237 20.3159 2.90237 20.7064 3.29289Z" fill="#CCCCCC"/>
</svg>
