<svg width="288" height="355" viewBox="0 0 598 355" fill="none" xmlns="http://www.w3.org/2000/svg">
<rect width="288" height="355" fill="#0074FF"/>
<g clip-path="url(#clip0_917_25)">
<path d="M100.654 162.441C104.448 162.441 107.524 159.366 107.524 155.572C107.524 151.777 104.448 148.702 100.654 148.702C96.8599 148.702 93.7842 151.777 93.7842 155.572C93.7842 159.366 96.8599 162.441 100.654 162.441Z" fill="white"/>
<path d="M122.333 222.752C107.005 222.393 94.9292 209.485 94.9292 194.15V168.884H106.379V194.272C106.379 203.279 113.371 210.958 122.371 211.302C131.836 211.66 139.645 204.065 139.645 194.684V174.616C139.645 171.456 142.209 168.891 145.37 168.891C148.53 168.891 151.095 171.456 151.095 174.616V194.684C151.095 210.393 138.126 223.133 122.34 222.759L122.333 222.752Z" fill="white"/>
<path d="M173.445 222.156H161.995V176.158C161.995 167.151 155.003 159.472 146.003 159.129C136.538 158.77 128.729 166.365 128.729 175.746V195.822C128.729 198.982 126.164 201.547 123.004 201.547C119.844 201.547 117.279 198.982 117.279 195.822V176.273C117.279 160.938 129.355 148.038 144.683 147.671C160.476 147.297 173.437 160.037 173.437 175.746V222.156H173.445Z" fill="white"/>
<path d="M91.0744 222.92H85.2579C65.2664 222.92 49 206.653 49 186.662V133H60.4499V186.662C60.4499 200.34 71.5791 211.47 85.2579 211.47H91.0744V222.92Z" fill="white"/>
<path d="M196.68 133H185.23V222.92H196.68V133Z" fill="white"/>
<path d="M244.068 222.92H227.038L196.68 195.333L190.765 189.959L196.68 184.685L220.801 163.197H238.014L207.978 189.959L244.068 222.92Z" fill="white"/>
<path d="M403.785 156.716C385.74 156.716 371.062 171.395 371.062 189.432C371.062 207.47 385.74 222.156 403.785 222.156C421.83 222.156 436.501 207.477 436.501 189.432C436.501 171.387 421.823 156.716 403.785 156.716V156.716ZM403.785 210.706C392.053 210.706 382.511 201.165 382.511 189.432C382.511 177.7 392.053 168.166 403.785 168.166C415.517 168.166 425.051 177.708 425.051 189.432C425.051 201.157 415.51 210.706 403.785 210.706Z" fill="white"/>
<path d="M506.643 191.6C507.719 190.448 508.269 188.906 508.17 187.333C507.078 170.166 492.735 156.716 475.515 156.716C458.294 156.716 442.791 171.395 442.791 189.432C442.791 207.47 457.47 222.156 475.515 222.156C487.331 222.156 498.063 215.904 503.887 205.729H489.209C485.446 208.897 480.637 210.706 475.515 210.706C465.279 210.706 456.706 203.439 454.691 193.783L502.498 193.425C504.071 193.409 505.574 192.753 506.643 191.6V191.6ZM455.462 182.326C458.393 174.082 466.278 168.166 475.515 168.166C484.751 168.166 492.438 173.906 495.46 182.028L455.462 182.326Z" fill="white"/>
<path d="M303.729 156.716C285.684 156.716 271.005 171.395 271.005 189.432C271.005 207.47 285.684 222.156 303.729 222.156C321.774 222.156 336.452 207.477 336.452 189.432C336.452 171.387 321.774 156.716 303.729 156.716V156.716ZM303.729 210.706C291.996 210.706 282.455 201.165 282.455 189.432C282.455 177.7 291.996 168.166 303.729 168.166C315.461 168.166 325.002 177.708 325.002 189.432C325.002 201.157 315.461 210.706 303.729 210.706Z" fill="white"/>
<path d="M336.452 188.578H325.002V222.156H336.452V188.578Z" fill="white"/>
<path d="M382.473 133H371.023V190.639H382.473V133Z" fill="white"/>
<path d="M528.207 133H516.757V222.156H528.207V133Z" fill="white"/>
<path d="M549 133H537.55V222.156H549V133Z" fill="white"/>
</g>
<defs>
<clipPath id="clip0_917_25">
<rect width="288" height="89.9195" fill="white" transform="translate(49 133)"/>
</clipPath>
</defs>
</svg>
