<svg width="40" height="40" viewBox="0 0 40 40" fill="none" xmlns="http://www.w3.org/2000/svg">
<circle cx="20" cy="20" r="19.5" stroke="#DDDDDD"/>
<g clip-path="url(#clip0_702_114)">
<path d="M27.0313 12.3437H23.5475L23.1666 11.2016C22.9268 10.4829 22.2568 10 21.4992 10H18.5008C17.7432 10 17.0732 10.4829 16.8329 11.2016L16.4524 12.3437H12.9688C11.9995 12.3437 11.2109 13.1323 11.2109 14.1016V15.2734C11.2109 15.9261 11.7985 15.8594 12.429 15.8594C17.8413 15.8594 22.7484 15.8594 28.2031 15.8594C28.527 15.8594 28.7891 15.5973 28.7891 15.2734V14.1016C28.7891 13.1323 28.0005 12.3437 27.0313 12.3437ZM17.688 12.3437L17.9446 11.5724C18.0248 11.3327 18.2485 11.1719 18.5008 11.1719H21.4992C21.7515 11.1719 21.9753 11.3327 22.0548 11.5724L22.3117 12.3437H17.688Z" fill="#DDDDDD"/>
<path d="M12.526 17.1094L13.4603 28.4012C13.5432 29.3128 14.2957 30 15.2106 30H24.7894C25.7043 30 26.4568 29.3128 26.5403 28.3961L27.474 17.1094H12.526ZM17.0703 27.0703C17.0703 27.8427 15.8984 27.8459 15.8984 27.0703V18.8672C15.8984 18.0948 17.0703 18.0916 17.0703 18.8672V27.0703ZM20.5859 27.0703C20.5859 27.8427 19.414 27.8459 19.414 27.0703V18.8672C19.414 18.0948 20.5859 18.0916 20.5859 18.8672V27.0703ZM24.1015 27.0703C24.1015 27.8427 22.9297 27.8459 22.9297 27.0703V18.8672C22.9297 18.5433 23.1917 18.2812 23.5156 18.2812C23.8395 18.2812 24.1015 18.5433 24.1015 18.8672V27.0703Z" fill="#DDDDDD"/>
</g>
<defs>
<clipPath id="clip0_702_114">
<rect width="20" height="20" fill="white" transform="translate(10 10)"/>
</clipPath>
</defs>
</svg>
