<svg width="20" height="20" viewBox="0 0 20 20" fill="none" xmlns="http://www.w3.org/2000/svg">
<path fill-rule="evenodd" clip-rule="evenodd" d="M14.4815 8.52899C14.4815 11.8164 11.8165 14.4813 8.52912 14.4813C5.24173 14.4813 2.57678 11.8164 2.57678 8.52899C2.57678 5.24161 5.24173 2.57666 8.52912 2.57666C11.8165 2.57666 14.4815 5.24161 14.4815 8.52899ZM13.2417 14.3024C11.9576 15.3518 10.3169 15.9813 8.52912 15.9813C4.41331 15.9813 1.07678 12.6448 1.07678 8.52899C1.07678 4.41318 4.41331 1.07666 8.52912 1.07666C12.6449 1.07666 15.9815 4.41318 15.9815 8.52899C15.9815 10.3168 15.3519 11.9576 14.3024 13.2417L18.7036 17.643C18.9965 17.9359 18.9965 18.4107 18.7036 18.7036C18.4107 18.9965 17.9358 18.9965 17.6429 18.7036L13.2417 14.3024Z" fill="#999999"/>
</svg>
