<svg width="40" height="40" viewBox="0 0 40 40" fill="none" xmlns="http://www.w3.org/2000/svg">
<path fill-rule="evenodd" clip-rule="evenodd" d="M10.9537 27.7913C11.1891 28.0267 11.5084 28.1589 11.8413 28.1589H28.1589C28.4918 28.1589 28.8111 28.0267 29.0464 27.7913C29.2818 27.5559 29.4141 27.2366 29.4141 26.9037V14.9793C29.4141 14.6464 29.2818 14.3271 29.0464 14.0917C28.8111 13.8564 28.4918 13.7241 28.1589 13.7241H18.0096C17.6767 13.7241 17.3574 13.5919 17.122 13.3565L15.9745 12.2089C15.7391 11.9735 15.4198 11.8413 15.087 11.8413H11.8413C11.148 11.8413 10.5861 12.4033 10.5861 13.0965V26.9037C10.5861 27.2366 10.7183 27.5559 10.9537 27.7913ZM21.0203 23.9084C20.825 24.1037 20.5085 24.1037 20.3132 23.9084C20.1179 23.7132 20.1179 23.3966 20.3132 23.2013L22.1263 21.3882H16.6667C16.3906 21.3882 16.1667 21.1643 16.1667 20.8882C16.1667 20.6121 16.3906 20.3882 16.6667 20.3882H22.1263L20.3132 18.5751C20.1179 18.3798 20.1179 18.0632 20.3132 17.868C20.5085 17.6727 20.825 17.6727 21.0203 17.868L23.687 20.5347C23.7807 20.6284 23.8334 20.7556 23.8334 20.8882C23.8334 21.0208 23.7807 21.148 23.687 21.2418L21.0203 23.9084Z" fill="#DDDDDD"/>
<circle cx="20.0001" cy="20" r="19.5" stroke="#DDDDDD"/>
</svg>
