<svg width="24" height="24" viewBox="0 0 24 24" fill="none" xmlns="http://www.w3.org/2000/svg">
<path d="M9.32151 23H14.1405L14.5618 20.9887C14.8967 19.3898 16.5469 18.4368 18.0992 18.9459L20.0526 19.5867L22.4621 15.4132L20.9308 14.0422C19.7138 12.9527 19.7138 11.0473 20.9308 9.95769L22.4621 8.58668L20.0526 4.41324L18.0996 5.0539C16.5476 5.56299 14.8974 4.6103 14.5623 3.01167L14.1405 1H9.32151L8.89977 3.01208C8.56457 4.61095 6.91418 5.56364 5.36196 5.05414L3.40952 4.41324L1 8.58668L2.53151 9.95737C3.74894 11.047 3.74894 12.9529 2.53151 14.0426L1 15.4132L3.40952 19.5867L5.36236 18.9457C6.91475 18.4361 8.56539 19.3891 8.90026 20.9883L9.32151 23Z" stroke="#666666" stroke-width="1.5" stroke-miterlimit="10" stroke-linecap="round" stroke-linejoin="round"/>
<path d="M11.7311 15.1382C13.4642 15.1382 14.8693 13.7332 14.8693 12C14.8693 10.2668 13.4642 8.86182 11.7311 8.86182C9.99791 8.86182 8.5929 10.2668 8.5929 12C8.5929 13.7332 9.99791 15.1382 11.7311 15.1382Z" stroke="#666666" stroke-width="1.5" stroke-miterlimit="10" stroke-linecap="round" stroke-linejoin="round"/>
</svg>
