<svg width="20" height="20" viewBox="0 0 20 20" fill="none" xmlns="http://www.w3.org/2000/svg">
<path fill-rule="evenodd" clip-rule="evenodd" d="M14.1486 8.19623C14.1486 11.4836 11.4836 14.1486 8.19623 14.1486C4.90885 14.1486 2.2439 11.4836 2.2439 8.19623C2.2439 4.90885 4.90885 2.2439 8.19623 2.2439C11.4836 2.2439 14.1486 4.90885 14.1486 8.19623ZM12.9088 13.9696C11.6247 15.0191 9.98398 15.6486 8.19623 15.6486C4.08042 15.6486 0.743896 12.312 0.743896 8.19623C0.743896 4.08042 4.08042 0.743896 8.19623 0.743896C12.312 0.743896 15.6486 4.08042 15.6486 8.19623C15.6486 9.98405 15.019 11.6248 13.9695 12.909L18.3707 17.3102C18.6636 17.6031 18.6636 18.078 18.3707 18.3709C18.0778 18.6637 17.6029 18.6637 17.3101 18.3709L12.9088 13.9696Z" fill="#999999"/>
</svg>
