<svg width="60" height="60" viewBox="0 0 60 60" fill="none" xmlns="http://www.w3.org/2000/svg">
<path d="M30 0C13.44 0 0 13.44 0 30C0 46.56 13.44 60 30 60C46.56 60 60 46.56 60 30C60 13.44 46.56 0 30 0ZM30 48C27.8 48 26 46.2 26 44C26 41.8 27.8 40 30 40C32.2 40 34 41.8 34 44C34 46.2 32.2 48 30 48ZM34.58 16.98L33.24 33.02C33.1 34.7 31.7 36 30 36C28.3 36 26.9 34.7 26.76 33.02L25.42 16.98C25.2 14.3 27.3 12 30 12C32.56 12 34.6 14.08 34.6 16.6C34.6 16.72 34.6 16.86 34.58 16.98Z" fill="#E1E1E1"/>
</svg>
